# File created by Blade
# Date/Time:  Wed Apr 08 17:17:01 2015
# Frame Rate: 120.000 fps
#------------------------------------------------------
:FULLY-SPECIFIED
:DEGREES
782
root 4.726187 36.024918 5.643483 14.045688 -74.071475 -22.828176
Spine 14.298535 5.032758 6.596032
Head 12.640123 15.044445 4.812916
LeftShoulder -7.282269 17.471390 14.237139
LeftArm 16.188601 27.787555 -74.151082
LeftForeArm 28.899932 -0.000000 18.363168
LeftHand -7.929533 -0.000000 -21.622912
LeftHandThumb1 -26.253704 0.000000 33.147579
RightShoulder -28.338866 -48.567058 20.996821
RightArm 57.810639 -14.997906 55.806440
RightForeArm 36.760354 -0.000000 11.757013
RightHand -1.380609 -0.000000 10.071711
RightHandThumb1 -24.326973 -0.000000 -32.862282
LeftUpLeg 9.349154 10.725425 0.441583
LeftLeg 14.264062 -0.000000 -0.000000
LeftFoot -18.448539 6.345210 -3.382531
LeftToeBase 3.460251 -0.000000 -0.000000
RightUpLeg -51.414755 -9.178558 -19.749636
RightLeg 154.151158 -0.000000 -0.000000
RightFoot 35.321622 10.113913 10.175040
RightToeBase -7.680641 -0.000000 0.000000
783
root 4.730190 36.032342 5.650820 14.602121 -74.405298 -23.364050
Spine 14.260617 4.930474 6.599640
Head 12.741982 15.084021 4.624450
LeftShoulder -7.334663 17.446863 14.173477
LeftArm 16.102328 27.744907 -74.202540
LeftForeArm 28.780633 -0.000000 18.255673
LeftHand -8.034734 -0.000000 -21.748249
LeftHandThumb1 -26.253704 0.000000 33.147579
RightShoulder -28.260120 -48.555538 20.845203
RightArm 57.803426 -15.119970 55.630981
RightForeArm 36.752589 -0.000000 11.821496
RightHand -1.425776 -0.000000 10.237802
RightHandThumb1 -24.326973 -0.000000 -32.862282
LeftUpLeg 9.536417 11.054163 0.480710
LeftLeg 13.901049 -0.000000 -0.000000
LeftFoot -18.343030 6.355226 -3.431766
LeftToeBase 3.435253 -0.000000 -0.000000
RightUpLeg -51.355623 -9.097981 -19.887251
RightLeg 154.228591 -0.000000 -0.000000
RightFoot 35.559532 10.222840 10.197896
RightToeBase -7.876580 -0.000000 0.000000
784
root 4.737525 36.039840 5.658056 15.238636 -74.707074 -23.928227
Spine 14.166749 4.821605 6.627508
Head 12.828636 15.105529 4.414820
LeftShoulder -7.388663 17.445395 14.086058
LeftArm 16.056477 27.753777 -74.201999
LeftForeArm 28.726897 -0.000000 18.178661
LeftHand -7.978240 -0.000000 -21.854918
LeftHandThumb1 -26.253704 0.000000 33.147579
RightShoulder -28.063491 -48.527827 20.578441
RightArm 57.582716 -15.115140 55.741303
RightForeArm 36.573518 -0.000000 11.963075
RightHand -1.612196 -0.000000 10.600124
RightHandThumb1 -24.326973 -0.000000 -32.862282
LeftUpLeg 9.641116 11.349010 0.521961
LeftLeg 13.573830 -0.000000 -0.000000
LeftFoot -18.236747 6.326577 -3.495196
LeftToeBase 3.428978 -0.000000 -0.000000
RightUpLeg -51.336027 -9.073216 -20.029994
RightLeg 154.286130 -0.000000 -0.000000
RightFoot 35.825085 10.328865 10.309567
RightToeBase -7.870463 -0.000000 0.000000
785
root 4.748221 36.048051 5.659156 15.938366 -74.939033 -24.510289
Spine 14.032322 4.734011 6.650404
Head 12.882619 15.037260 4.293588
LeftShoulder -7.385880 17.409486 14.075812
LeftArm 16.061180 27.774441 -74.221632
LeftForeArm 28.799949 -0.000000 18.041295
LeftHand -7.878977 -0.000000 -22.018192
LeftHandThumb1 -26.253704 0.000000 33.147579
RightShoulder -28.115634 -48.542513 20.564162
RightArm 57.531996 -15.206171 55.547285
RightForeArm 36.690149 -0.000000 12.136386
RightHand -1.648791 -0.000000 10.704611
RightHandThumb1 -24.326973 -0.000000 -32.862282
LeftUpLeg 9.641683 11.628004 0.587826
LeftLeg 13.329104 -0.000000 -0.000000
LeftFoot -18.148604 6.285838 -3.532693
LeftToeBase 3.418613 -0.000000 -0.000000
RightUpLeg -51.334846 -9.092075 -20.169368
RightLeg 154.347178 -0.000000 -0.000000
RightFoot 36.030091 10.404014 10.519947
RightToeBase -7.615077 -0.000000 0.000000
786
root 4.760507 36.055613 5.661239 16.605739 -75.142382 -25.015286
Spine 13.854434 4.662809 6.657261
Head 12.896323 14.944415 4.212800
LeftShoulder -7.354684 17.399670 14.070889
LeftArm 16.060131 27.759590 -74.247389
LeftForeArm 28.868626 -0.000000 18.001994
LeftHand -7.902486 -0.000000 -22.017868
LeftHandThumb1 -26.253704 0.000000 33.147579
RightShoulder -28.229456 -48.558315 20.589266
RightArm 57.431165 -15.243137 55.488224
RightForeArm 36.654684 -0.000000 12.342219
RightHand -1.635012 0.000000 10.794874
RightHandThumb1 -24.326973 -0.000000 -32.862282
LeftUpLeg 9.561626 11.845805 0.620957
LeftLeg 13.148790 -0.000000 -0.000000
LeftFoot -18.080257 6.242925 -3.605036
LeftToeBase 3.478155 -0.000000 -0.000000
RightUpLeg -51.366077 -9.205320 -20.270613
RightLeg 154.389811 -0.000000 -0.000000
RightFoot 36.209646 10.481141 10.464804
RightToeBase -7.507831 -0.000000 0.000000
787
root 4.774139 36.064521 5.655158 17.418376 -75.312354 -25.652521
Spine 13.677951 4.593037 6.683924
Head 12.853466 14.857607 4.188169
LeftShoulder -7.335839 17.358632 14.084806
LeftArm 16.108876 27.867864 -74.212263
LeftForeArm 28.910778 -0.000000 17.976893
LeftHand -7.968110 0.000000 -22.060798
LeftHandThumb1 -26.253704 0.000000 33.147579
RightShoulder -28.361503 -48.590816 20.671383
RightArm 57.343476 -15.258399 55.412805
RightForeArm 36.686966 -0.000000 12.560353
RightHand -1.730993 -0.000000 10.840118
RightHandThumb1 -24.326973 -0.000000 -32.862282
LeftUpLeg 9.444113 12.059132 0.706482
LeftLeg 12.996389 -0.000000 -0.000000
LeftFoot -18.029632 6.171036 -3.666262
LeftToeBase 3.564233 -0.000000 -0.000000
RightUpLeg -51.350807 -9.006781 -20.738103
RightLeg 154.401615 -0.000000 -0.000000
RightFoot 35.666578 9.000082 13.605953
RightToeBase -1.334783 -0.000000 0.000000
788
root 4.792746 36.073102 5.657595 18.164056 -75.462137 -26.208463
Spine 13.496006 4.507930 6.733537
Head 12.792624 14.763204 4.118699
LeftShoulder -7.292183 17.300533 14.070994
LeftArm 16.117751 27.878620 -74.233468
LeftForeArm 28.992538 -0.000000 17.975081
LeftHand -7.994694 0.000000 -22.136374
LeftHandThumb1 -26.253704 0.000000 33.147579
RightShoulder -28.480893 -48.615511 20.711647
RightArm 57.224839 -15.215135 55.432943
RightForeArm 36.661652 -0.000000 12.745579
RightHand -1.755276 -0.000000 10.989908
RightHandThumb1 -24.326973 -0.000000 -32.862282
LeftUpLeg 9.291108 12.177450 0.729597
LeftLeg 12.860378 -0.000000 -0.000000
LeftFoot -17.961266 6.183231 -3.752010
LeftToeBase 3.604137 -0.000000 -0.000000
RightUpLeg -51.356884 -9.082245 -20.966962
RightLeg 154.385656 -0.000000 -0.000000
RightFoot 35.621057 8.760304 14.145454
RightToeBase 0.217181 -0.000000 -0.000000
789
root 4.810040 36.080547 5.661252 18.819185 -75.586912 -26.666819
Spine 13.316088 4.411144 6.746816
Head 12.710697 14.674127 4.115383
LeftShoulder -7.242938 17.234366 14.092051
LeftArm 16.118105 27.900072 -74.253088
LeftForeArm 29.024076 -0.000000 18.022944
LeftHand -7.995573 -0.000000 -22.222999
LeftHandThumb1 -26.253704 0.000000 33.147579
RightShoulder -28.756904 -48.676458 20.907165
RightArm 57.244901 -15.214761 55.298048
RightForeArm 36.772881 -0.000000 12.918805
RightHand -1.651020 -0.000000 10.870911
RightHandThumb1 -24.326973 -0.000000 -32.862282
LeftUpLeg 9.109057 12.271562 0.727578
LeftLeg 12.770326 -0.000000 -0.000000
LeftFoot -17.910418 6.213247 -3.813462
LeftToeBase 3.699336 -0.000000 -0.000000
RightUpLeg -51.367299 -9.262600 -21.146147
RightLeg 154.376787 -0.000000 -0.000000
RightFoot 35.674049 9.011870 13.733312
RightToeBase -0.107551 -0.000000 0.000000
790
root 4.831275 36.087841 5.661779 19.513085 -75.713141 -27.251348
Spine 13.281716 4.315908 6.798359
Head 12.543502 14.630232 4.091867
LeftShoulder -7.189493 17.163706 14.120631
LeftArm 16.155784 27.870776 -74.285498
LeftForeArm 29.046553 -0.000000 18.104787
LeftHand -8.022550 -0.000000 -22.224203
LeftHandThumb1 -26.253704 0.000000 33.147579
RightShoulder -28.857043 -48.668653 20.950049
RightArm 57.143408 -15.090132 55.429184
RightForeArm 36.633148 -0.000000 13.042168
RightHand -1.736193 0.000000 10.938279
RightHandThumb1 -24.326973 -0.000000 -32.862282
LeftUpLeg 8.996408 12.402386 0.778760
LeftLeg 12.703719 -0.000000 -0.000000
LeftFoot -17.870444 6.231193 -3.846967
LeftToeBase 3.715328 -0.000000 -0.000000
RightUpLeg -51.314837 -9.401349 -21.294623
RightLeg 154.356526 -0.000000 -0.000000
RightFoot 35.645904 9.123082 13.458029
RightToeBase -0.330220 -0.000000 0.000000
791
root 4.848536 36.094667 5.663349 20.316601 -75.872138 -27.899327
Spine 13.176084 4.248127 6.834872
Head 12.428057 14.574055 4.115386
LeftShoulder -7.164073 17.113321 14.142619
LeftArm 16.201191 27.900002 -74.303660
LeftForeArm 29.013878 -0.000000 18.162675
LeftHand -8.025673 0.000000 -22.102239
LeftHandThumb1 -26.253704 0.000000 33.147579
RightShoulder -29.057352 -48.696790 21.096941
RightArm 57.151863 -15.055367 55.369831
RightForeArm 36.629610 -0.000000 13.156253
RightHand -1.639533 -0.000000 10.846813
RightHandThumb1 -24.326973 -0.000000 -32.862282
LeftUpLeg 8.851339 12.601724 0.822980
LeftLeg 12.628183 -0.000000 -0.000000
LeftFoot -17.836730 6.253459 -3.854859
LeftToeBase 3.779122 -0.000000 -0.000000
RightUpLeg -51.308858 -9.492736 -21.448958
RightLeg 154.315049 -0.000000 -0.000000
RightFoot 35.533991 9.161391 13.243690
RightToeBase -0.230086 -0.000000 0.000000
792
root 4.863833 36.100844 5.667571 21.258035 -76.105971 -28.782064
Spine 13.193980 4.223849 6.915724
Head 12.288732 14.525924 4.106939
LeftShoulder -7.145398 17.071505 14.153698
LeftArm 16.251409 27.891419 -74.334487
LeftForeArm 28.929741 -0.000000 18.241686
LeftHand -8.049609 -0.000000 -22.026806
LeftHandThumb1 -26.253704 0.000000 33.147579
RightShoulder -29.095953 -48.669121 21.072830
RightArm 57.076291 -14.963357 55.491795
RightForeArm 36.487849 -0.000000 13.180120
RightHand -1.586754 -0.000000 10.707060
RightHandThumb1 -24.326973 -0.000000 -32.862282
LeftUpLeg 8.837688 12.888237 0.911426
LeftLeg 12.511669 -0.000000 -0.000000
LeftFoot -17.805330 6.256507 -3.878837
LeftToeBase 3.821081 -0.000000 -0.000000
RightUpLeg -51.258439 -9.470677 -21.619485
RightLeg 154.256160 -0.000000 -0.000000
RightFoot 35.540869 9.276780 12.964818
RightToeBase -0.782778 -0.000000 0.000000
793
root 4.877331 36.107939 5.669992 22.280961 -76.257418 -29.651193
Spine 13.061302 4.112401 6.997083
Head 12.256834 14.489426 4.143926
LeftShoulder -7.169012 17.080689 14.130953
LeftArm 16.333758 27.962082 -74.298985
LeftForeArm 28.806547 -0.000000 18.335984
LeftHand -8.099218 0.000000 -21.961424
LeftHandThumb1 -26.253704 0.000000 33.147579
RightShoulder -29.161058 -48.705372 21.115971
RightArm 57.062750 -14.888201 55.476553
RightForeArm 36.446893 0.000000 13.172308
RightHand -1.510517 -0.000000 10.603771
RightHandThumb1 -24.326973 -0.000000 -32.862282
LeftUpLeg 8.703416 13.134069 1.006484
LeftLeg 12.434223 -0.000000 -0.000000
LeftFoot -17.785983 6.244771 -3.875583
LeftToeBase 3.809701 -0.000000 -0.000000
RightUpLeg -51.236504 -9.569221 -21.745747
RightLeg 154.170112 -0.000000 -0.000000
RightFoot 35.470278 9.255474 12.908197
RightToeBase -0.757987 -0.000000 0.000000
794
root 4.890996 36.111584 5.672649 23.171698 -76.513798 -30.530353
Spine 13.151515 4.107921 7.023660
Head 12.108206 14.424315 4.201416
LeftShoulder -7.141417 17.053969 14.185026
LeftArm 16.394818 27.905068 -74.347999
LeftForeArm 28.724214 -0.000000 18.462302
LeftHand -8.108701 -0.000000 -21.847972
LeftHandThumb1 -26.253704 0.000000 33.147579
RightShoulder -29.173310 -48.680174 21.103056
RightArm 57.026590 -14.786532 55.579592
RightForeArm 36.331167 -0.000000 13.159564
RightHand -1.483685 -0.000000 10.552472
RightHandThumb1 -24.326973 -0.000000 -32.862282
LeftUpLeg 8.737698 13.486710 1.092639
LeftLeg 12.338897 -0.000000 -0.000000
LeftFoot -17.764794 6.226204 -3.879186
LeftToeBase 3.865850 -0.000000 -0.000000
RightUpLeg -51.150189 -9.510691 -21.957323
RightLeg 154.096061 -0.000000 -0.000000
RightFoot 35.536280 9.287012 12.820140
RightToeBase -0.842940 -0.000000 0.000000
